<?xml version="1.0" standalone="no"?>
<!DOCTYPE svg PUBLIC "-//W3C//DTD SVG 20010904//EN"
 "http://www.w3.org/TR/2001/REC-SVG-20010904/DTD/svg10.dtd">
<svg version="1.0" xmlns="http://www.w3.org/2000/svg"
 width="1024.000000pt" height="1536.000000pt" viewBox="0 0 1024.000000 1536.000000"
 preserveAspectRatio="xMidYMid meet">
<metadata>
Created by potrace 1.16, written by Peter Selinger 2001-2019
</metadata>
<g transform="translate(0.000000,1536.000000) scale(0.100000,-0.100000)"
fill="#000000" stroke="none">
<path d="M7376 14324 c-145 -35 -287 -145 -345 -267 -48 -100 -63 -183 -59
-324 l3 -122 -25 -3 c-38 -5 -52 -41 -46 -128 7 -129 68 -270 131 -304 11 -6
22 -12 24 -14 3 -1 10 -48 17 -105 23 -185 14 -359 -22 -429 -30 -59 -99 -105
-389 -262 -88 -47 -186 -102 -217 -122 -45 -29 -78 -40 -160 -55 -217 -39
-359 -148 -457 -351 -101 -208 -128 -410 -89 -664 10 -70 10 -73 -30 -190 -66
-193 -74 -247 -81 -544 l-6 -265 -66 -140 c-136 -289 -163 -433 -174 -950 -8
-393 -33 -604 -105 -900 -40 -164 -53 -306 -40 -430 22 -191 93 -371 177 -444
124 -110 289 -51 337 119 27 95 66 386 66 490 0 108 -17 173 -72 268 -38 66
-38 88 -2 221 33 123 91 270 207 526 164 363 195 488 206 825 l8 215 45 145
c45 140 99 381 114 505 l8 60 12 -60 c11 -55 60 -203 129 -393 71 -199 83
-370 39 -593 -22 -110 -27 -161 -26 -282 1 -143 -1 -152 -33 -251 -46 -137
-64 -219 -129 -573 -111 -601 -126 -716 -133 -1073 -9 -449 28 -815 134 -1305
l45 -210 -1 -254 c-1 -139 -4 -265 -7 -280 -3 -14 -21 -69 -40 -121 -105 -295
-136 -551 -98 -822 8 -62 38 -237 65 -388 117 -644 146 -961 104 -1148 -16
-72 -17 -92 -7 -140 l12 -57 -46 -67 c-61 -87 -99 -125 -134 -133 -80 -18
-139 -98 -126 -170 11 -57 62 -89 203 -125 23 -6 75 -33 115 -60 95 -64 171
-84 291 -77 203 11 253 92 212 342 -19 115 -19 251 0 342 14 69 14 80 -10 225
-29 178 -33 388 -10 559 22 169 81 441 134 625 58 199 69 255 77 389 7 115 -6
259 -43 461 l-25 141 20 74 c115 430 127 494 167 886 26 257 33 299 104 620
85 378 129 716 132 997 2 154 7 189 32 194 29 6 37 -42 37 -211 0 -306 28
-543 119 -997 74 -370 68 -327 86 -580 27 -381 44 -488 122 -783 45 -172 46
-181 35 -240 -72 -390 -82 -497 -63 -666 7 -58 24 -146 37 -195 34 -123 98
-435 118 -576 41 -280 38 -507 -10 -730 -26 -123 -26 -125 -10 -200 21 -100
20 -193 -4 -326 -33 -184 -25 -253 39 -307 44 -37 99 -50 211 -49 109 0 159
15 257 79 34 22 83 46 110 53 112 29 150 45 182 77 31 31 33 37 29 84 -6 62
-32 92 -113 129 -60 27 -89 55 -169 163 -28 38 -28 40 -16 97 11 51 10 73 -5
157 -34 187 -5 446 115 1043 104 515 110 556 110 735 0 214 -25 360 -101 589
l-31 91 5 285 4 285 46 185 c119 485 162 826 161 1300 0 353 -7 422 -90 935
-72 442 -98 573 -140 708 -31 96 -35 123 -33 192 6 141 0 229 -21 336 -55 274
-37 421 97 768 24 63 55 155 68 205 l23 91 7 -50 c26 -195 71 -393 127 -565
30 -90 31 -106 38 -315 11 -327 51 -490 206 -833 121 -264 191 -458 225 -619
10 -51 9 -54 -25 -113 -61 -103 -79 -171 -78 -285 1 -112 43 -425 67 -496 21
-60 69 -117 119 -140 175 -80 337 100 391 436 25 150 14 303 -34 492 -31 120
-70 328 -81 433 -6 52 -15 248 -20 435 -5 188 -14 383 -20 434 -23 203 -70
364 -167 567 l-47 99 -6 275 c-8 303 -16 359 -77 540 -33 98 -35 109 -27 175
5 39 9 149 8 245 0 213 -19 302 -95 459 -98 201 -243 304 -474 336 -35 5 -78
24 -145 64 -52 32 -178 102 -278 157 -101 54 -209 119 -240 144 -67 53 -77 79
-94 220 -10 82 -9 120 6 241 10 79 19 144 20 144 58 19 105 81 136 183 44 142
33 262 -24 262 l-25 0 0 138 c0 92 -5 157 -16 197 -50 191 -184 328 -369 375
-94 24 -241 26 -330 4z m296 -25 c174 -37 321 -170 367 -334 37 -127 31 -337
-14 -538 -27 -120 -64 -197 -112 -234 -54 -41 -81 -44 -143 -12 -31 15 -85 32
-120 39 -36 6 -73 13 -82 15 -10 2 -18 -1 -18 -6 0 -5 16 -9 36 -9 l36 0 -7
-48 c-8 -62 11 -378 31 -490 20 -118 51 -213 91 -279 l33 -55 -35 -72 c-44
-91 -80 -225 -105 -396 -39 -278 -44 -380 -46 -1010 -1 -406 -5 -635 -12 -675
-21 -111 -32 -447 -30 -945 l1 -495 8 525 c8 558 21 844 44 951 7 37 29 97 48
135 l35 68 92 -284 c105 -324 193 -574 246 -696 l36 -85 -36 -42 c-93 -108
-183 -230 -240 -327 -35 -58 -79 -130 -99 -162 -74 -115 -127 -266 -151 -430
-17 -113 -21 -330 -7 -389 8 -35 8 -35 -23 -35 l-31 1 4 154 c7 301 -44 519
-169 726 -26 44 -69 116 -95 160 -53 89 -134 202 -207 286 l-49 57 26 58 c47
107 186 486 275 750 l88 262 30 -66 c17 -37 35 -85 41 -108 22 -83 31 -336 32
-909 2 -522 3 -565 11 -370 13 310 2 1102 -16 1230 -12 84 -13 159 -4 465 24
839 -21 1377 -133 1605 l-31 64 21 30 c80 112 128 338 140 661 l6 175 30 6 30
7 -30 1 c-43 1 -127 -23 -178 -51 -35 -20 -49 -23 -77 -15 -83 21 -128 84
-164 228 -51 203 -59 460 -19 580 56 164 185 283 349 323 72 18 224 20 296 5z
m458 -728 c36 -68 -35 -326 -100 -361 -10 -5 -21 -10 -23 -10 -7 0 10 90 27
150 9 31 23 91 31 134 20 102 41 131 65 87z m-1146 -13 c2 -13 20 -91 40 -175
20 -83 36 -159 36 -167 0 -52 -71 35 -100 122 -24 73 -36 175 -26 216 8 33 44
36 50 4z m213 -408 l39 -12 -12 -56 c-7 -32 -22 -106 -34 -166 -23 -116 -50
-200 -76 -232 -15 -18 -15 -18 -9 6 16 67 17 223 1 360 -9 80 -19 155 -22 168
-4 19 2 16 35 -17 22 -22 57 -45 78 -51z m763 -86 c-22 -169 -21 -298 1 -378
l9 -31 -20 25 c-39 50 -74 167 -113 381 l-14 77 39 11 c22 7 56 29 76 50 20
21 38 37 40 35 2 -1 -6 -78 -18 -170z m-545 113 c9 -48 -12 -332 -36 -476 -28
-166 -84 -318 -129 -346 -8 -5 -7 -12 4 -24 25 -27 62 -120 84 -211 69 -281
90 -653 77 -1365 l-7 -430 -25 55 c-239 533 -333 826 -437 1366 -14 72 -34
151 -45 176 -45 107 -163 175 -401 233 -36 9 -71 18 -79 21 -21 7 53 54 299
188 118 65 242 137 276 162 110 78 173 188 206 357 10 56 25 135 33 176 8 41
21 81 28 88 12 13 123 62 139 63 4 0 10 -15 13 -33z m327 1 c26 -11 52 -26 57
-32 6 -7 19 -66 31 -131 42 -240 76 -331 161 -420 62 -65 122 -105 356 -231
186 -101 307 -174 300 -181 -3 -2 -65 -20 -138 -39 -215 -55 -313 -113 -364
-214 -14 -27 -43 -137 -70 -261 -94 -442 -167 -665 -351 -1079 -40 -91 -85
-187 -99 -215 l-25 -50 4 600 c4 612 11 748 51 1005 30 188 88 367 128 395
l21 15 -20 22 c-64 72 -111 213 -134 407 -14 118 -24 382 -16 415 7 30 24 29
108 -6z m-1192 -1053 c155 -45 215 -72 270 -121 39 -35 96 -131 85 -143 -3 -2
-15 5 -28 16 -46 43 -328 173 -431 198 -70 17 -107 31 -125 49 -15 15 -31 26
-37 26 -5 -1 6 -14 24 -29 l33 -28 -48 -7 c-105 -14 -230 -95 -308 -198 -130
-173 -193 -392 -183 -638 4 -83 1 -122 -7 -134 -19 -25 -40 123 -38 269 5 403
197 703 493 770 87 20 151 13 300 -30z m2255 30 c146 -31 278 -129 358 -265
44 -77 93 -222 108 -323 14 -100 14 -265 -1 -375 -13 -90 -14 -93 -31 -75 -15
16 -16 26 -7 78 15 88 2 265 -27 381 -69 278 -230 466 -434 507 l-63 13 32 27
c40 34 29 35 -15 1 -21 -16 -71 -35 -130 -49 -112 -28 -310 -118 -299 -136 4
-8 3 -9 -4 -5 -15 9 -99 -28 -129 -56 -43 -40 -16 43 32 100 54 64 137 103
336 157 141 38 176 41 274 20z m-2303 -111 c96 -30 218 -89 218 -105 0 -16
-220 -271 -315 -365 -102 -100 -224 -192 -380 -285 -66 -39 -139 -87 -162
-105 l-41 -34 -7 83 c-22 273 98 604 268 738 139 110 243 128 419 73z m2270
25 c267 -57 448 -367 448 -769 0 -157 -1 -159 -56 -112 -24 22 -70 53 -102 70
-175 94 -374 249 -500 392 -142 161 -242 280 -242 288 0 23 188 104 295 127
77 17 93 17 157 4z m-1937 -180 c61 -36 74 -60 96 -170 18 -92 20 -127 15
-299 -3 -107 -10 -220 -16 -250 -23 -127 -32 -161 -43 -157 -17 5 -79 88 -133
177 -54 87 -244 444 -244 457 0 16 204 247 230 260 28 14 50 10 95 -18z m1491
-1 c40 -35 193 -214 201 -234 5 -13 -106 -224 -208 -396 -79 -134 -170 -261
-180 -251 -29 29 -65 374 -55 533 8 138 39 276 68 308 24 25 104 71 125 72 7
0 29 -15 49 -32z m-1763 -380 c36 -68 64 -124 62 -126 -1 -2 -28 12 -59 31
-31 19 -89 45 -129 58 -39 13 -73 24 -75 25 -4 1 122 131 130 133 3 0 36 -54
71 -121z m2053 55 c35 -37 62 -68 61 -68 -1 -1 -27 -9 -57 -18 -30 -9 -90 -34
-132 -56 l-78 -40 21 42 c46 91 111 207 116 207 3 0 34 -30 69 -67z m-521
-453 c9 -52 19 -98 22 -104 4 -5 0 -7 -8 -4 -8 3 -49 15 -91 28 -43 13 -78 27
-78 32 0 4 16 60 35 122 19 63 43 150 54 193 10 43 22 92 27 108 6 21 10 -17
15 -125 4 -85 15 -198 24 -250z m-1049 111 c24 -90 44 -164 44 -166 0 -2 -10
-5 -22 -9 -13 -3 -52 -14 -88 -24 l-66 -19 18 86 c10 47 23 160 30 251 l12
165 14 -60 c8 -33 34 -134 58 -224z m-625 240 c68 -23 154 -66 196 -97 18 -14
60 -71 93 -128 33 -57 83 -134 111 -171 27 -37 48 -69 46 -71 -1 -2 -35 -9
-75 -16 -137 -23 -306 21 -399 105 -53 49 -90 126 -113 238 l-20 94 38 32 c44
38 52 39 123 14z m2322 -16 l38 -33 -26 -98 c-14 -54 -35 -118 -47 -142 -64
-126 -243 -211 -423 -199 -44 3 -90 9 -103 14 -22 8 -22 9 18 62 22 29 65 94
96 145 88 143 95 152 148 187 55 36 208 98 241 98 11 0 37 -15 58 -34z m-2484
-157 c36 -173 44 -256 45 -443 1 -199 -13 -297 -65 -461 -36 -112 -112 -263
-172 -341 -46 -60 -116 -128 -123 -120 -2 2 5 64 16 138 12 74 23 206 27 294
6 178 -6 265 -51 359 l-25 53 23 105 c31 134 48 191 93 312 l37 99 80 53 c45
29 84 53 87 54 4 0 16 -46 28 -102z m2628 51 c45 -29 83 -61 90 -77 30 -65 97
-287 119 -390 l24 -112 -25 -50 c-48 -94 -58 -166 -52 -370 4 -116 14 -228 26
-300 11 -63 17 -117 14 -120 -10 -9 -134 133 -174 201 -140 235 -205 541 -180
841 7 79 17 168 22 198 15 80 50 230 55 230 2 0 38 -23 81 -51z m-2883 -170
c-35 -92 -104 -342 -104 -378 0 -9 -19 -42 -41 -72 -57 -75 -95 -162 -124
-282 -24 -100 -44 -258 -46 -361 -1 -50 -1 -50 -10 -16 -30 119 -27 567 6 725
38 183 99 312 176 374 44 36 171 113 176 107 2 -2 -13 -45 -33 -97z m3083 51
c93 -57 151 -118 189 -198 32 -67 70 -215 84 -324 14 -113 11 -505 -4 -598
l-13 -75 -7 95 c-24 311 -67 470 -161 594 -30 39 -41 67 -62 159 -13 62 -46
176 -72 255 -25 78 -44 142 -41 142 3 0 42 -22 87 -50z m-2612 -214 c94 -45
200 -62 304 -49 72 10 245 54 302 77 12 5 25 -19 63 -124 25 -72 76 -199 111
-283 36 -84 65 -160 65 -169 0 -64 -348 -1030 -384 -1066 -26 -26 -54 17 -101
154 -31 93 -86 215 -188 415 -222 438 -283 618 -306 914 -6 72 -13 158 -17
193 l-6 63 49 -49 c27 -27 75 -61 108 -76z m2242 117 c-3 -5 -13 -91 -22 -193
-19 -211 -26 -253 -61 -370 -54 -178 -135 -355 -295 -645 -98 -178 -146 -286
-184 -408 -29 -94 -32 -100 -61 -115 -30 -16 -34 -10 -100 159 -52 132 -285
827 -299 888 -4 20 10 62 53 157 33 72 85 198 117 280 32 82 61 152 64 156 4
4 54 -8 113 -27 58 -19 139 -40 179 -46 175 -27 350 23 454 130 37 38 52 51
42 34z m-2789 -430 c37 -87 45 -162 39 -346 -6 -164 -42 -450 -68 -542 -19
-68 -66 -150 -117 -205 l-48 -53 -24 54 c-21 47 -24 70 -25 174 0 182 36 532
70 683 24 103 116 282 145 282 4 0 17 -21 28 -47z m3282 -63 c59 -115 91 -262
105 -480 3 -52 13 -155 21 -227 12 -102 13 -150 5 -207 -12 -86 -37 -156 -56
-156 -22 0 -84 80 -120 155 -44 90 -88 331 -110 610 -11 139 24 351 67 402 10
13 16 11 36 -13 13 -16 36 -54 52 -84z m-3021 -485 l-52 -160 -7 -225 c-11
-319 -46 -469 -177 -755 -151 -332 -226 -526 -254 -664 -13 -60 -26 -74 -48
-48 -15 19 39 217 139 507 131 381 188 608 216 865 14 125 20 156 41 188 31
49 93 211 93 243 0 14 13 48 29 77 15 29 36 74 47 101 10 27 19 45 21 40 2 -6
-20 -82 -48 -169z m2667 39 c24 -49 44 -98 44 -107 0 -24 56 -173 83 -221 19
-32 26 -67 35 -166 24 -266 67 -446 202 -850 89 -266 144 -453 152 -519 2 -15
-5 -28 -19 -38 -22 -15 -23 -14 -23 10 0 75 -108 381 -228 643 -156 340 -199
521 -206 869 l-3 170 -52 169 c-50 165 -60 206 -39 156 6 -14 30 -66 54 -116z
m-3191 -319 l-7 -140 -48 -96 c-97 -190 -123 -310 -170 -779 -17 -168 -36
-344 -43 -392 -7 -49 -9 -88 -5 -88 4 0 8 5 8 12 0 6 9 75 20 152 11 78 31
256 45 396 28 283 57 443 104 570 39 105 100 216 101 182 0 -13 12 -53 26 -90
26 -65 27 -68 15 -161 -17 -128 -61 -339 -126 -601 -29 -118 -65 -271 -79
-339 -14 -68 -26 -125 -28 -126 -2 -1 -32 -5 -67 -8 l-63 -5 6 36 c38 221 47
310 56 582 23 667 40 773 178 1063 l57 120 13 -74 c9 -51 11 -117 7 -214z
m3839 12 c71 -189 105 -450 106 -797 0 -283 22 -522 65 -717 6 -24 -1 -28 -24
-14 -17 11 -32 119 -66 476 -29 299 -48 436 -75 553 -22 94 -75 228 -119 299
-26 44 -29 58 -34 168 -3 78 0 150 9 205 8 47 14 89 14 94 0 18 89 -173 124
-267z m-1031 203 c-8 -30 -17 -104 -20 -165 -5 -94 -1 -132 23 -260 22 -114
28 -177 28 -263 -1 -62 -4 -115 -6 -118 -3 -2 -22 12 -43 31 -48 46 -123 84
-205 104 -54 13 -66 20 -74 42 -13 39 24 146 109 314 73 143 199 374 202 372
1 -1 -5 -27 -14 -57z m-1723 -365 c21 -44 49 -116 64 -161 37 -110 30 -125
-60 -147 -80 -20 -142 -55 -194 -108 l-37 -39 -7 73 c-7 79 2 169 35 340 18
93 20 135 16 242 -3 71 -8 141 -12 155 -8 31 145 -247 195 -355z m-665 259
c-40 -102 -72 -148 -140 -194 l-41 -28 17 68 c15 63 22 74 76 124 33 30 72 73
88 96 15 22 30 38 33 36 2 -3 -12 -48 -33 -102z m2942 -24 c54 -57 66 -75 82
-133 10 -37 15 -67 10 -67 -4 0 -34 26 -67 58 -46 44 -66 73 -90 132 -17 41
-34 89 -38 105 l-7 30 23 -30 c13 -16 52 -59 87 -95z m-3031 -237 c-19 -238
-82 -492 -230 -937 -57 -171 -112 -345 -121 -386 -10 -41 -19 -76 -20 -78 -1
-1 -15 4 -31 13 -16 8 -44 18 -61 21 -19 4 -33 12 -33 20 0 25 48 239 120 534
65 266 98 432 116 574 6 50 13 66 45 100 21 23 55 66 76 96 31 44 124 130 142
130 2 0 1 -39 -3 -87z m3170 -41 c15 -26 47 -67 70 -92 l42 -45 21 -150 c24
-161 45 -261 121 -565 48 -193 100 -428 100 -453 0 -7 -24 -21 -52 -31 -29 -9
-58 -19 -63 -22 -7 -2 -21 36 -34 93 -13 54 -67 231 -121 393 -147 439 -201
665 -217 903 l-6 100 56 -42 c31 -24 68 -64 83 -89z m248 -74 c78 -160 110
-313 146 -693 11 -121 31 -292 43 -380 l23 -160 -39 -3 c-22 -2 -41 -1 -44 2
-2 2 -15 58 -28 123 -13 65 -48 218 -79 339 -63 250 -109 474 -126 612 -11 87
-10 95 10 136 11 25 24 60 27 80 3 20 9 36 14 36 5 0 29 -42 53 -92z m-1244
-174 c0 -8 -6 -14 -14 -14 -9 0 -12 7 -9 20 6 22 23 18 23 -6z m-1310 1 c0 -8
-4 -15 -10 -15 -5 0 -10 7 -10 15 0 8 5 15 10 15 6 0 10 -7 10 -15z m30 -41
c59 -24 222 -221 317 -384 26 -44 25 -44 -53 30 -90 86 -227 187 -305 227 -63
31 -149 41 -205 23 -21 -7 -60 -33 -87 -58 -48 -45 -48 -46 -41 -17 22 92 176
192 296 194 21 1 56 -6 78 -15z m1453 -23 c72 -35 143 -103 157 -151 l10 -34
-38 36 c-92 89 -199 102 -323 40 -83 -41 -224 -143 -318 -229 l-74 -67 39 59
c116 179 248 332 312 363 63 31 147 25 235 -17z m-1507 -116 c64 -31 241 -161
318 -234 134 -128 225 -302 272 -521 9 -41 18 -145 21 -231 9 -260 -17 -349
-137 -462 -108 -102 -245 -157 -430 -172 -159 -13 -289 24 -361 102 -73 80
-89 150 -64 293 9 52 20 178 24 280 8 170 11 192 40 280 62 184 173 357 308
480 32 29 49 48 38 43 -30 -17 -187 -181 -223 -235 -53 -78 -120 -221 -147
-314 -14 -48 -27 -89 -29 -91 -2 -2 -6 11 -10 29 -44 210 -47 331 -12 471 31
122 54 174 102 226 83 92 176 110 290 56z m1570 -1 c82 -47 122 -115 159 -266
32 -130 33 -251 4 -391 -27 -133 -33 -141 -48 -70 -19 86 -72 213 -127 304
-51 85 -174 225 -247 280 -23 18 2 -12 56 -66 119 -119 203 -244 256 -379 52
-134 60 -182 65 -371 2 -88 11 -206 20 -263 14 -82 15 -112 6 -156 -38 -182
-215 -271 -471 -237 -190 25 -316 79 -415 176 -102 101 -134 197 -134 399 1
247 63 477 174 645 57 84 165 193 267 266 70 50 81 56 97 44 15 -12 16 -12 4
2 -10 14 -7 20 25 41 124 82 219 95 309 42z m259 -799 c60 -371 83 -544 95
-720 33 -504 -24 -1055 -167 -1620 -32 -128 -36 -157 -42 -330 -6 -188 -6
-189 -18 -124 -28 143 -16 326 47 712 63 392 87 742 70 1013 -11 175 -24 282
-65 519 -54 313 -56 434 -11 630 13 61 28 139 33 175 4 36 9 54 11 40 1 -14
23 -146 47 -295z m-2229 66 c37 -206 32 -329 -26 -631 -75 -394 -96 -645 -80
-972 10 -199 23 -318 69 -658 33 -244 41 -368 30 -497 -13 -159 -30 -215 -23
-73 7 143 -9 296 -50 480 -120 533 -163 1105 -121 1585 19 212 29 281 102 683
54 304 58 320 66 270 4 -29 19 -113 33 -187z m-830 -211 c56 -27 65 -36 106
-107 96 -166 102 -255 43 -609 -28 -165 -45 -213 -91 -253 -73 -65 -158 -63
-233 4 -112 102 -185 385 -161 625 10 108 63 346 81 364 14 15 90 22 144 13
28 -4 78 -21 111 -37z m4064 24 c18 -18 71 -245 82 -357 27 -248 -49 -531
-170 -637 -97 -86 -223 -57 -278 64 -23 50 -64 295 -79 466 -11 121 12 206 94
347 36 63 56 77 156 115 54 20 176 21 195 2z m-2241 -629 c-11 -312 -46 -551
-143 -990 l-53 -240 -6 270 c-6 297 -25 524 -63 744 -30 178 -30 177 0 185 69
17 216 141 255 214 7 13 14 22 15 20 1 -1 -1 -93 -5 -203z m184 124 c39 -49
169 -144 213 -155 13 -3 24 -11 24 -18 0 -6 -11 -67 -25 -136 -44 -225 -84
-646 -86 -905 -2 -161 8 -188 -73 210 -73 364 -100 595 -109 945 -3 110 -2
140 7 126 6 -10 28 -40 49 -67z m-1093 -122 c21 -20 58 -46 82 -58 24 -12 45
-23 47 -25 2 -2 -26 -66 -62 -142 -76 -160 -130 -328 -158 -492 -25 -149 -42
-393 -33 -495 12 -145 -5 -73 -25 110 -51 445 -40 737 46 1223 l6 33 28 -59
c16 -33 47 -76 69 -95z m2104 -211 c26 -263 18 -531 -25 -876 -12 -91 -22
-166 -22 -167 -1 -1 -2 85 -3 190 -1 342 -50 574 -180 858 -24 53 -44 103 -44
112 0 9 18 24 43 35 82 38 133 95 172 197 11 27 39 -139 59 -349z m-1492 61
c26 -129 48 -311 48 -394 0 -86 -18 -225 -66 -500 -63 -367 -65 -390 -74 -778
-6 -238 -14 -393 -22 -435 l-14 -65 -23 90 c-125 493 -142 605 -148 1002 -5
331 0 458 37 820 20 190 34 277 48 300 7 12 166 53 187 49 5 -2 17 -42 27 -89z
m862 67 c38 -8 73 -17 77 -20 11 -6 27 -123 38 -279 28 -387 33 -525 28 -760
-9 -387 -24 -491 -125 -904 l-67 -274 -14 54 c-10 39 -15 176 -21 489 -6 367
-11 455 -28 565 -98 612 -101 685 -35 1018 l27 138 25 -6 c14 -4 57 -13 95
-21z m-1203 -14 c60 0 109 -2 109 -4 0 -3 -5 -17 -11 -33 -14 -37 -34 -203
-59 -482 -22 -252 -27 -284 -77 -491 -19 -80 -56 -237 -83 -350 -69 -292 -105
-410 -162 -533 -28 -59 -49 -109 -47 -111 2 -3 28 41 57 96 l52 101 2 -52 c1
-28 2 -58 2 -66 1 -8 -21 -32 -49 -53 -36 -27 -61 -57 -87 -107 -34 -63 -37
-67 -38 -39 0 17 9 66 21 110 31 118 36 323 14 559 -21 222 -24 566 -6 705 33
264 130 564 226 705 17 24 23 41 16 43 -6 2 -8 9 -4 15 5 8 8 8 11 -1 2 -8 37
-12 113 -12z m1521 -12 c49 -37 166 -338 202 -520 52 -257 55 -547 9 -913 -9
-71 -16 -206 -17 -300 0 -142 3 -185 22 -262 12 -51 22 -107 22 -123 0 -27 -5
-22 -38 42 -28 54 -52 83 -89 111 l-50 38 8 50 c4 27 6 58 3 67 -3 9 20 -32
51 -92 31 -59 58 -106 61 -103 3 3 -13 42 -36 86 -56 111 -92 225 -135 426
-20 94 -61 280 -90 415 -72 329 -73 333 -90 590 -21 313 -36 473 -47 486 -13
17 192 19 214 2z m-1103 -991 c2 -508 -41 -840 -167 -1277 l-19 -65 -6 40 c-4
25 2 82 14 150 17 90 22 175 30 470 9 386 7 365 88 837 23 131 42 250 43 265
5 92 16 -168 17 -420z m621 113 c65 -428 65 -429 62 -765 -2 -303 5 -424 32
-545 8 -32 10 -74 6 -100 l-6 -45 -13 45 c-7 25 -21 74 -31 110 -93 322 -140
809 -120 1265 10 243 22 388 28 325 2 -19 20 -150 42 -290z m374 -150 c19 -85
44 -204 56 -265 12 -60 40 -186 61 -280 41 -174 57 -309 41 -334 -7 -9 -15
-10 -28 -3 -28 14 -84 23 -84 13 0 -5 17 -11 38 -15 70 -11 70 -11 29 -143
-20 -65 -40 -138 -43 -162 l-7 -44 -42 89 c-23 49 -58 116 -78 149 -21 33 -37
63 -37 66 0 7 44 29 90 45 28 9 30 12 12 13 -39 2 -90 -26 -149 -81 -63 -59
-62 -62 -26 61 l15 54 19 -39 c16 -35 18 -36 12 -9 -3 17 -9 39 -13 51 -5 12
4 76 21 160 41 197 59 366 66 617 3 119 7 216 9 214 2 -1 19 -72 38 -157z
m-1375 -495 c7 -44 23 -135 37 -202 l24 -122 -20 -45 c-10 -25 -15 -46 -11
-46 5 0 15 16 23 36 l15 37 21 -83 20 -82 -34 33 c-18 18 -37 30 -40 26 -4 -3
7 -18 24 -32 51 -43 70 -98 107 -315 19 -113 43 -254 54 -315 53 -298 30 -575
-64 -771 -33 -68 -100 -144 -128 -144 -49 0 -132 96 -166 194 -37 106 -44 200
-37 486 13 528 26 610 113 754 74 121 91 151 92 157 1 3 -21 18 -48 32 -62 34
-137 43 -185 23 l-36 -15 0 86 c0 67 8 114 35 212 19 69 64 254 99 411 36 157
69 296 73 310 4 14 10 -103 14 -260 4 -157 12 -321 18 -365z m-43 -404 c23
-10 44 -23 47 -27 2 -5 -15 -40 -40 -79 -24 -38 -61 -104 -81 -145 l-38 -76
-37 156 c-20 85 -37 159 -37 163 0 29 127 35 186 8z m-177 -137 c17 -66 33
-145 37 -175 8 -74 -15 -955 -26 -1000 -16 -57 -66 -118 -116 -141 -82 -36
-137 3 -201 140 -52 112 -67 207 -60 392 9 231 49 400 163 674 49 118 60 136
111 184 31 28 57 51 59 49 1 -1 16 -56 33 -123z m1828 71 c48 -42 84 -121 157
-343 83 -253 112 -561 71 -757 -31 -150 -134 -305 -203 -305 -42 1 -107 34
-132 70 -48 67 -50 92 -50 576 0 360 3 468 15 531 16 83 61 230 78 251 6 8 6
12 -2 12 -7 0 -9 4 -6 10 7 11 8 10 72 -45z m-231 -180 c18 -38 38 -99 44
-135 5 -37 10 -239 10 -463 0 -441 -5 -495 -62 -620 -33 -72 -112 -157 -146
-157 -24 0 -83 64 -112 120 -64 126 -101 385 -82 588 10 117 119 697 142 756
5 14 28 46 51 71 l42 45 40 -67 c22 -38 55 -99 73 -138z m390 -1311 c-77 -368
-93 -451 -115 -609 -44 -306 -50 -445 -26 -555 20 -89 18 -135 -8 -203 l-23
-59 -13 77 c-17 103 -26 88 -12 -20 7 -51 9 -122 5 -173 -8 -108 0 -105 15 6
6 45 17 94 24 109 l14 26 60 -79 c65 -85 115 -136 129 -133 28 5 50 -5 80 -35
27 -27 34 -42 34 -74 0 -55 -36 -84 -132 -107 -93 -23 -123 -36 -199 -85 -80
-52 -124 -63 -234 -63 -69 0 -101 4 -137 20 -88 40 -103 103 -69 297 12 65 21
137 21 160 l1 41 14 -40 c8 -22 12 -51 9 -65 -2 -14 3 -7 11 15 23 58 53 215
64 333 15 166 -10 794 -45 1083 -6 52 -5 57 14 63 58 19 148 151 175 257 l14
54 23 -45 c41 -83 91 -121 161 -122 21 0 39 -3 39 -5 0 -3 -13 -71 -30 -151
-16 -81 -45 -230 -64 -332 -20 -102 -58 -268 -86 -370 -60 -222 -86 -352 -95
-480 -6 -93 8 -267 24 -283 4 -4 4 16 0 45 -11 79 -10 231 2 333 10 85 66 320
106 448 l18 58 2 -203 c2 -241 11 -388 24 -388 5 0 6 12 3 27 -4 14 -7 171 -8
347 l-1 321 53 280 c67 357 66 352 114 400 21 22 51 65 66 95 15 31 28 53 30
50 1 -4 -22 -123 -52 -266z m-2234 121 l37 -42 51 -319 c49 -313 50 -324 50
-540 0 -232 -12 -433 -34 -556 l-13 -73 -18 40 c-27 60 -30 124 -10 206 15 61
17 101 12 258 -7 220 -35 435 -112 856 -30 164 -55 304 -55 310 1 5 13 -14 28
-44 14 -29 43 -72 64 -96z m293 58 c24 -83 72 -167 120 -212 23 -21 47 -40 54
-42 10 -4 8 -40 -8 -174 -53 -434 -70 -937 -37 -1118 25 -137 75 -309 60 -206
-2 19 2 54 10 79 l15 45 0 -55 c1 -30 8 -100 16 -154 29 -194 17 -253 -62
-289 -40 -18 -67 -22 -153 -22 -121 0 -155 9 -242 69 -69 46 -115 67 -196 86
-63 14 -112 56 -112 95 0 42 27 83 70 105 45 23 54 25 44 9 -3 -6 5 -4 19 6
14 9 58 59 98 111 l72 95 13 -30 c7 -16 15 -60 19 -97 13 -120 23 -122 18 -4
-4 79 0 146 11 215 16 103 35 362 39 545 l2 105 42 -170 c72 -289 90 -452 70
-650 -5 -56 -5 -65 4 -45 7 14 14 88 16 165 6 166 -13 294 -82 568 -24 94 -51
210 -59 257 -20 101 -96 578 -96 597 0 8 12 13 31 13 17 0 46 7 65 16 40 19
102 87 110 121 4 13 8 23 9 23 2 0 11 -26 20 -57z m294 -276 c-16 -65 -45
-205 -64 -310 -18 -106 -45 -235 -59 -287 -14 -52 -27 -106 -29 -120 -10 -62
-6 77 8 243 23 265 54 491 68 496 7 2 32 25 57 51 25 25 46 46 46 46 1 -1 -11
-54 -27 -119z m1095 -15 c9 -43 35 -374 41 -522 3 -74 8 -155 11 -180 3 -25 3
-43 0 -40 -7 7 -51 240 -66 345 -22 163 -68 429 -86 501 -5 18 5 12 44 -27 28
-28 53 -63 56 -77z m-1164 -1013 l23 -126 -21 -89 c-12 -49 -28 -111 -36 -139
l-13 -50 -16 70 c-47 208 -48 465 -1 665 l29 125 6 -165 c4 -105 14 -210 29
-291z m1217 101 c6 -129 -13 -330 -41 -435 -15 -56 -17 -54 -45 56 -34 132
-34 154 -5 289 20 93 28 166 32 285 l6 160 23 -115 c13 -63 26 -171 30 -240z"/>
<path d="M8261 2470 c0 -8 4 -22 9 -30 12 -18 12 -2 0 25 -6 13 -9 15 -9 5z"/>
<path d="M6599 2464 c-5 -15 -8 -29 -5 -31 2 -2 8 10 14 26 13 38 5 41 -9 5z"/>
<path d="M2576 14314 c-140 -34 -274 -138 -340 -264 -53 -101 -68 -179 -64
-342 3 -137 3 -138 -19 -138 -15 0 -28 -11 -39 -32 -43 -84 38 -358 113 -382
35 -11 53 -120 53 -319 0 -203 -2 -211 -77 -276 -53 -47 -404 -269 -473 -300
-25 -11 -99 -31 -166 -44 -265 -54 -434 -181 -535 -403 -78 -172 -107 -407
-75 -604 l17 -105 -35 -97 c-65 -178 -96 -402 -96 -692 l0 -119 -74 -156
c-140 -295 -161 -406 -176 -936 -13 -448 -27 -574 -106 -898 -63 -261 -67
-431 -13 -627 76 -277 250 -402 401 -287 70 54 90 111 133 387 39 252 31 345
-42 489 -50 97 -50 99 -8 245 36 124 104 291 205 506 176 376 220 550 220 880
l0 159 46 143 c52 164 101 351 110 421 4 26 10 47 13 47 4 0 12 -21 19 -46 7
-26 47 -132 88 -235 113 -284 126 -391 77 -631 -22 -111 -27 -162 -28 -303 -1
-134 -5 -180 -19 -215 -38 -101 -79 -286 -150 -675 -121 -665 -143 -870 -133
-1254 6 -242 23 -414 63 -660 23 -140 41 -220 103 -448 30 -109 40 -244 37
-498 -3 -226 -4 -232 -34 -330 -18 -55 -44 -158 -59 -230 -23 -114 -26 -154
-27 -330 -1 -229 2 -249 99 -745 107 -544 124 -714 101 -1025 -8 -110 -11
-125 -44 -185 -73 -136 -143 -231 -235 -322 -127 -125 -160 -193 -137 -280 25
-92 126 -150 299 -169 175 -20 329 17 414 99 53 50 67 81 74 159 7 71 15 84
82 126 84 54 96 118 58 308 -21 102 -25 143 -20 220 4 65 0 123 -11 188 -9 52
-16 129 -16 172 0 229 78 705 150 916 94 273 99 467 25 839 -44 217 -44 249 0
377 60 176 111 472 135 782 21 274 31 338 85 598 88 419 114 601 130 915 l7
132 28 0 27 0 6 -152 c12 -281 42 -492 127 -893 56 -264 66 -335 75 -495 18
-343 88 -757 156 -933 27 -67 24 -141 -11 -305 -44 -209 -60 -329 -60 -456 0
-142 20 -257 71 -411 24 -73 53 -194 74 -310 64 -363 80 -614 49 -776 -12 -60
-15 -113 -11 -186 5 -89 2 -116 -20 -205 -14 -57 -26 -134 -27 -173 -1 -84 19
-120 95 -167 52 -32 55 -37 63 -132 6 -70 39 -125 101 -168 69 -47 120 -60
257 -65 152 -6 248 11 328 60 66 40 90 82 90 157 0 71 -36 136 -117 211 -88
81 -143 153 -213 280 -63 113 -64 115 -65 199 -1 47 -6 137 -10 200 -12 179
12 347 121 873 83 397 103 521 110 687 8 176 -12 336 -71 565 l-45 174 0 240
c0 281 7 340 65 566 144 557 180 1114 109 1685 -14 110 -46 298 -149 885 -15
83 -47 219 -71 303 l-44 152 6 128 c5 109 3 148 -20 282 -46 274 -35 355 89
655 45 110 88 218 95 240 l13 40 28 -130 c15 -71 44 -184 64 -250 79 -252 77
-241 71 -358 -15 -320 38 -550 212 -927 99 -217 157 -367 196 -511 36 -131 35
-153 -6 -221 -55 -90 -73 -158 -72 -273 1 -97 34 -363 56 -455 22 -90 78 -166
141 -189 45 -17 117 -13 164 10 55 27 95 75 143 174 51 104 79 223 87 361 7
126 -5 223 -47 399 -74 310 -88 442 -100 980 -11 512 -21 567 -160 865 l-68
145 -5 245 c-6 279 -18 361 -77 545 l-40 123 16 93 c23 133 15 340 -19 469
-86 330 -265 496 -602 555 -55 10 -118 26 -140 36 -54 23 -395 238 -467 294
-88 68 -92 80 -92 285 0 209 17 296 63 323 59 35 132 243 118 334 -7 40 -32
73 -57 73 -15 0 -16 14 -12 133 5 153 -10 244 -57 344 -58 124 -191 232 -327
267 -77 20 -256 20 -338 0z m329 -29 c180 -47 311 -186 351 -373 25 -120 14
-331 -31 -592 -46 -267 -81 -349 -203 -470 -117 -117 -156 -135 -287 -135 -85
0 -107 4 -148 24 -104 51 -222 174 -272 284 -13 29 -38 120 -54 202 -85 426
-81 679 12 833 64 107 180 192 307 226 74 20 250 20 325 1z m-721 -777 c13
-85 46 -275 52 -295 9 -32 -10 -29 -35 5 -44 62 -83 234 -67 296 10 39 44 35
50 -6z m1148 6 c23 -50 -21 -239 -71 -304 -11 -14 -22 -22 -25 -20 -4 5 40
307 49 338 7 21 35 13 47 -14z m-990 -591 c14 -21 54 -67 90 -103 54 -55 66
-73 72 -110 10 -61 154 -640 166 -669 10 -22 9 -23 -17 -16 -49 11 -99 72
-156 189 -122 249 -173 421 -184 624 -3 67 -4 122 -1 122 3 0 17 -17 30 -37z
m809 -127 c-18 -183 -66 -335 -178 -566 -59 -120 -115 -192 -163 -209 -28 -9
-29 -9 -19 17 6 14 50 183 99 375 l88 349 69 71 c38 40 78 85 89 102 l19 29 3
-29 c2 -16 -1 -79 -7 -139z m-541 -131 c0 -35 21 -116 44 -165 21 -48 20 -26
-3 40 -10 30 -22 75 -25 100 l-6 45 111 0 111 0 -7 -49 c-3 -27 -15 -71 -25
-99 -11 -28 -18 -52 -16 -54 9 -9 47 103 52 154 6 58 6 58 55 80 27 12 49 17
49 12 0 -28 -174 -687 -186 -706 -16 -26 -32 -29 -58 -10 -16 12 -111 367
-174 648 l-19 85 48 -25 c42 -22 49 -30 49 -56z m560 -76 c16 -125 58 -315 84
-380 l23 -58 -65 -7 c-56 -6 -67 -4 -78 11 -42 57 -44 283 -4 432 14 50 26 90
28 89 1 -2 7 -41 12 -87z m-832 -21 c18 -69 24 -119 24 -193 1 -97 -19 -206
-41 -228 -6 -6 -35 -7 -74 -3 l-65 7 30 69 c35 84 76 266 85 373 3 42 8 75 11
72 3 -3 16 -47 30 -97z m952 -61 c19 -14 126 -82 238 -150 139 -86 197 -127
185 -130 -123 -35 -339 -70 -393 -65 -33 3 -36 7 -56 63 -12 33 -24 78 -28
100 -6 39 -5 38 29 -25 61 -112 78 -120 21 -10 -52 99 -77 172 -90 264 l-5 39
32 -30 c18 -16 48 -42 67 -56z m-1026 1 c-9 -50 -32 -111 -73 -193 -33 -67
-49 -107 -36 -91 13 16 37 56 54 89 38 73 39 63 6 -42 -30 -95 -53 -128 -81
-116 -10 4 -23 7 -28 6 -5 -1 -43 3 -85 9 -69 10 -123 22 -234 51 l-38 10 208
130 c189 118 293 191 301 211 2 5 7 8 12 8 4 0 2 -33 -6 -72z m169 -198 c45
-104 66 -183 50 -193 -7 -4 -133 12 -141 18 -1 1 5 22 14 46 8 24 18 88 21
142 3 53 7 96 8 95 1 -2 23 -50 48 -108z m666 -108 c7 -24 14 -49 17 -56 4
-10 -11 -16 -52 -21 -31 -4 -63 -9 -71 -12 -10 -4 -13 6 -13 41 0 33 13 74 45
146 25 55 46 106 46 113 1 6 5 -28 9 -78 4 -49 13 -109 19 -133z m-1254 -12
c66 -17 194 -40 285 -50 401 -49 436 -57 470 -112 11 -18 20 -28 20 -21 0 8
13 7 47 -3 25 -8 57 -14 69 -14 36 0 117 30 134 49 41 46 88 58 385 91 105 12
231 30 280 41 50 10 122 25 160 33 60 13 79 13 133 1 93 -19 96 -31 11 -39
-39 -3 -105 -18 -146 -31 -106 -36 -138 -42 -328 -59 -390 -37 -523 -98 -570
-259 -49 -169 -46 -637 5 -736 40 -80 129 -133 295 -176 126 -33 244 -48 331
-43 41 3 74 3 74 1 0 -2 -10 -17 -21 -33 -25 -33 -37 -117 -21 -147 9 -17 6
-25 -19 -49 -17 -16 -40 -42 -51 -59 -14 -19 -2 -12 33 23 49 47 59 52 99 52
25 0 50 -4 57 -8 7 -4 15 -43 19 -89 8 -101 0 -117 -135 -257 -53 -55 -78 -86
-56 -69 58 45 169 163 189 200 51 99 91 -98 45 -221 -27 -74 -87 -153 -192
-255 -48 -47 -84 -87 -82 -90 3 -3 49 38 101 90 89 87 183 210 185 241 2 39
18 -37 18 -89 2 -158 -54 -280 -219 -473 -40 -47 -86 -114 -103 -150 -60 -131
-89 -385 -50 -451 23 -38 63 -54 103 -40 l31 10 -19 -32 c-11 -18 -52 -90 -92
-162 -100 -180 -280 -446 -336 -497 -25 -22 -74 -34 -74 -18 0 6 -5 8 -11 5
-7 -5 -7 -2 0 11 17 30 85 217 130 359 97 302 156 595 170 847 5 86 12 161 16
168 8 13 19 238 35 696 13 349 10 379 -37 434 -34 41 -79 63 -203 99 -199 60
-245 42 -262 -101 -11 -91 -5 -237 11 -266 7 -13 5 -32 -5 -63 -21 -58 -17
-367 5 -392 11 -14 11 -22 -3 -51 -23 -48 -23 -363 -1 -406 20 -38 63 -50 185
-50 52 -1 125 -4 162 -8 57 -7 68 -5 71 8 2 8 3 -41 2 -110 -4 -191 -52 -432
-147 -750 -51 -171 -142 -415 -159 -426 -5 -3 -33 -8 -62 -11 -93 -10 -87 -53
-87 585 0 575 2 609 41 662 23 30 17 55 -14 64 -36 10 -54 7 -77 -12 l-22 -18
26 -38 c21 -31 26 -51 26 -100 3 -566 -2 -1122 -12 -1133 -11 -13 -76 -17
-115 -7 -59 16 -232 557 -293 918 -23 137 -31 318 -16 350 7 14 6 17 -2 12 -7
-4 -12 -1 -12 10 0 13 3 14 14 5 10 -8 63 -9 196 -3 181 9 183 9 206 35 29 34
37 98 33 269 -3 104 -8 140 -21 160 -16 24 -16 26 0 42 15 14 17 42 17 210 0
140 -3 197 -13 208 -10 12 -9 22 3 51 11 26 15 72 15 159 0 192 -18 228 -114
228 -65 0 -215 -43 -291 -83 -46 -24 -66 -43 -85 -77 l-25 -45 1 -275 c1 -348
19 -721 39 -825 9 -44 14 -96 11 -116 -8 -52 11 -232 40 -383 49 -252 112
-476 198 -703 25 -66 46 -128 46 -137 0 -20 -22 -21 -59 -1 -45 23 -250 319
-352 507 -34 62 -72 131 -84 153 l-23 41 50 -1 c73 0 92 27 96 143 7 183 -53
363 -163 492 -123 143 -182 251 -205 381 -13 72 -4 212 11 171 23 -62 127
-188 229 -278 35 -31 18 -10 -45 58 -174 185 -217 285 -184 427 7 31 6 47 -2
57 -8 10 -8 14 0 14 6 0 11 -4 11 -8 0 -5 8 -8 18 -8 12 1 38 -24 68 -63 27
-35 78 -89 114 -120 64 -55 64 -54 -21 35 -47 49 -98 110 -112 135 -25 42 -26
51 -20 127 7 90 6 89 81 94 38 2 46 -2 94 -47 l52 -50 -46 54 c-41 48 -45 57
-36 80 12 32 3 91 -21 139 l-19 37 117 0 c127 0 260 24 386 70 126 46 186 102
213 198 19 72 28 462 13 582 -15 115 -56 204 -113 245 -84 61 -193 87 -503
120 -150 15 -208 26 -275 49 -46 17 -115 33 -153 37 -45 4 -65 10 -58 17 8 8
102 33 136 36 6 0 64 -13 130 -29z m-285 -9 c0 -5 -31 -19 -68 -31 -91 -29
-194 -101 -265 -186 -151 -179 -238 -486 -208 -735 6 -52 16 -108 21 -125 10
-28 10 -28 5 6 -14 93 -17 304 -5 381 31 213 130 415 261 533 28 25 85 63 127
83 72 36 81 38 171 38 118 0 241 -34 241 -67 0 -11 -36 -60 -79 -109 -99 -111
-198 -256 -285 -417 -89 -165 -126 -218 -238 -338 -59 -64 -104 -124 -123
-163 -32 -64 -45 -75 -46 -38 0 12 -5 31 -10 42 -8 16 -9 15 -5 -10 l4 -30
-19 24 c-60 73 -86 322 -54 516 44 271 174 471 366 564 46 22 111 47 144 55
33 8 61 15 63 15 1 1 2 -3 2 -8z m2488 -25 c152 -54 275 -167 348 -319 63
-134 85 -226 91 -392 6 -164 -13 -299 -53 -383 -14 -29 -28 -52 -29 -50 -2 2
6 46 17 98 25 113 29 306 9 420 -20 110 -66 245 -114 330 -80 142 -236 273
-354 298 -20 4 -38 13 -40 19 -5 13 60 2 125 -21z m-1097 -49 c-18 -18 -23 -1
-9 29 13 28 13 28 16 5 2 -13 -1 -28 -7 -34z m-416 -6 c-11 -10 -35 11 -35 31
l0 23 20 -25 c10 -14 17 -26 15 -29z m1517 7 c162 -81 290 -264 351 -508 18
-70 21 -115 22 -255 0 -159 -9 -232 -41 -347 -4 -12 -17 4 -41 53 -23 43 -69
105 -121 162 -122 132 -151 174 -242 346 -95 180 -170 294 -274 411 -96 108
-97 122 -13 149 93 30 95 30 193 27 83 -2 99 -5 166 -38z m-2163 -44 c-32 -18
-38 -17 -32 4 3 14 11 18 30 14 l26 -5 -24 -13z m1730 -16 c1 -4 -12 1 -29 10
-29 16 -29 17 -7 23 20 5 34 -8 36 -33z m-1394 -3 c253 -31 351 -77 404 -191
35 -74 44 -170 38 -434 -4 -259 -12 -307 -56 -369 -47 -66 -256 -141 -451
-163 -90 -10 -117 -9 -185 5 -194 40 -334 158 -486 406 -28 45 -44 81 -39 89
12 23 142 131 220 184 90 60 98 67 45 40 -64 -33 -158 -102 -247 -182 -51 -46
-76 -64 -64 -46 10 16 50 88 89 160 144 270 296 460 408 511 38 17 115 15 324
-10z m1350 4 c111 -52 267 -254 395 -510 29 -57 61 -116 71 -131 34 -48 20
-40 -66 37 -80 71 -180 142 -252 179 -50 25 -39 12 15 -19 67 -39 179 -125
234 -179 l47 -47 -51 -82 c-138 -222 -286 -352 -453 -398 -150 -42 -490 16
-624 105 -96 65 -117 160 -108 496 6 233 19 313 63 388 55 93 178 137 466 167
181 19 212 18 263 -6z m-2136 -707 c8 -15 1 -20 -52 -39 l-62 -21 44 39 c49
44 56 46 70 21z m2654 -21 l42 -40 -61 22 c-55 19 -60 23 -50 39 15 25 21 23
69 -21z m-2613 -64 c26 -59 44 -247 36 -384 -24 -408 -145 -745 -331 -923 -26
-25 -56 -63 -66 -85 -18 -39 -18 -39 -27 -14 -51 133 -85 252 -94 331 -28 251
39 681 135 862 46 86 145 189 219 226 85 42 105 40 128 -13z m2628 12 c77 -38
181 -147 221 -233 92 -191 148 -576 121 -830 -7 -75 -22 -140 -46 -210 -19
-55 -40 -118 -46 -139 l-11 -38 -17 39 c-10 22 -44 67 -76 101 -152 161 -237
357 -289 671 -37 221 -29 544 16 632 24 47 44 49 127 7z m-2509 -320 c28 -405
38 -500 59 -559 3 -10 2 -12 -6 -5 -15 15 -77 198 -95 285 -11 51 -17 143 -19
291 l-3 216 27 -36 c25 -35 28 -48 37 -192z m2320 131 c-5 -52 -7 -144 -3
-205 5 -98 3 -121 -20 -213 -28 -111 -81 -258 -101 -282 -7 -8 -19 -35 -25
-60 -7 -25 -19 -58 -28 -75 -8 -16 -23 -52 -32 -78 l-17 -48 -12 61 -12 61 49
54 c79 86 88 113 111 345 11 113 25 263 31 334 10 115 14 134 38 167 15 20 28
36 29 35 1 -1 -2 -44 -8 -96z m-2909 -20 c0 -5 14 -31 30 -57 l31 -49 -26 -95
c-56 -213 -67 -312 -69 -616 0 -155 -3 -284 -6 -287 -11 -10 -82 220 -93 302
-13 99 4 422 28 537 21 96 86 286 96 279 5 -3 9 -9 9 -14z m781 -127 c30 -17
71 -36 92 -43 64 -20 112 -119 93 -194 -9 -35 -61 -44 -122 -21 -54 20 -146
102 -179 159 -26 45 -50 125 -60 201 l-7 49 65 -61 c36 -33 89 -74 118 -90z
m2049 78 c-22 -179 -201 -370 -325 -347 -64 12 -71 82 -16 167 22 35 38 48 79
62 60 21 183 101 231 151 19 20 35 35 37 33 1 -1 -2 -31 -6 -66z m653 -3 c60
-164 87 -348 87 -583 0 -153 -14 -239 -63 -378 -35 -98 -35 -98 -42 -60 -4 21
-6 94 -4 163 9 318 -4 467 -57 694 l-27 114 39 60 c21 34 40 61 40 61 1 1 13
-32 27 -71z m-1860 -87 c37 -14 47 -59 47 -207 0 -152 -9 -184 -51 -184 -47 0
-168 -29 -287 -68 -148 -48 -145 -51 -140 138 5 174 18 205 111 249 62 30 232
80 274 81 12 0 33 -4 46 -9z m297 -6 c116 -27 222 -68 256 -100 43 -41 54 -88
54 -230 0 -91 -4 -126 -15 -142 l-15 -21 -63 24 c-82 33 -237 73 -309 81 -52
5 -58 8 -68 36 -12 36 -13 224 -1 287 10 48 40 80 75 80 11 0 50 -7 86 -15z
m-1227 -145 c17 -19 52 -52 79 -73 l48 -39 0 -89 c0 -103 -9 -114 -64 -80 -43
27 -103 113 -121 176 -8 26 -15 87 -15 134 l0 86 21 -40 c12 -22 35 -56 52
-75z m2124 22 c-8 -134 -61 -245 -143 -301 -52 -36 -61 -30 -68 52 -4 40 -4
84 -1 98 4 13 34 44 69 70 37 28 76 69 101 107 22 34 42 61 44 62 2 0 1 -40
-2 -88z m-2307 -194 c-16 -110 -63 -296 -114 -456 -25 -75 -50 -157 -56 -182
-12 -45 -41 -94 -70 -118 -8 -7 -52 -37 -97 -68 -46 -30 -83 -60 -83 -66 0 -6
-3 -9 -6 -5 -8 8 15 104 34 142 8 17 46 63 84 104 154 165 247 382 299 696 17
100 25 60 9 -47z m2425 37 c11 -97 70 -318 108 -405 51 -117 92 -182 174 -271
79 -85 95 -111 113 -179 6 -25 14 -53 16 -63 8 -27 -207 133 -229 171 -18 31
-31 69 -111 343 -42 140 -82 329 -91 424 -7 85 9 68 20 -20z m-2203 -146 c33
-27 34 -36 28 -141 -4 -72 -18 -74 -59 -11 -37 56 -57 121 -66 218 l-7 70 36
-55 c21 -30 51 -67 68 -81z m2057 32 c-11 -97 -32 -151 -80 -206 l-34 -38 -7
49 c-14 109 -12 118 42 173 27 27 56 64 65 81 9 18 18 30 20 28 2 -1 -1 -41
-6 -87z m-1129 -30 c6 -12 10 -94 10 -198 0 -224 3 -218 -117 -225 -48 -3
-141 -16 -205 -29 -87 -17 -121 -20 -129 -12 -33 33 -36 328 -4 363 35 39 294
119 387 120 37 0 50 -4 58 -19z m260 4 c102 -24 247 -74 273 -95 20 -16 26
-32 31 -82 9 -85 -10 -268 -29 -287 -13 -13 -28 -12 -127 8 -62 12 -153 25
-201 28 -121 8 -119 5 -118 221 0 204 6 222 65 222 23 0 70 -7 106 -15z m740
-39 c0 -3 -4 -8 -10 -11 -5 -3 -10 -1 -10 4 0 6 5 11 10 11 6 0 10 -2 10 -4z
m-1924 -181 c23 -19 24 -24 17 -88 l-8 -67 -36 92 c-20 51 -40 109 -44 128
l-7 35 27 -40 c15 -22 38 -49 51 -60z m-836 -222 c57 -167 74 -258 74 -408 0
-149 -6 -178 -142 -660 -44 -154 -96 -352 -117 -440 -20 -88 -39 -166 -41
-172 -2 -8 -21 -13 -49 -13 -26 0 -56 -5 -67 -11 -24 -13 -25 -20 11 181 26
152 41 355 41 570 0 442 40 658 171 929 38 79 70 151 70 160 1 11 3 10 6 -4 3
-11 22 -70 43 -132z m3723 30 c151 -297 176 -429 182 -953 5 -381 13 -506 46
-679 11 -57 18 -106 16 -108 -3 -2 -16 1 -31 7 -15 5 -45 10 -67 10 -21 0 -39
2 -39 5 0 19 -67 315 -101 444 -22 86 -65 248 -94 361 -30 113 -61 241 -70
285 -19 92 -22 262 -6 356 17 98 115 391 122 365 3 -12 22 -53 42 -93z m-3568
-203 l27 -75 -16 -70 c-9 -38 -28 -88 -41 -110 l-25 -40 0 60 c0 33 -7 105
-15 160 -9 64 -12 132 -8 190 l6 90 23 -65 c12 -36 34 -99 49 -140z m3395 103
c5 -50 2 -103 -6 -149 -7 -39 -14 -110 -16 -157 -3 -84 -3 -86 -21 -64 -9 12
-27 53 -38 90 -26 84 -22 118 26 245 19 51 35 100 35 109 0 9 3 13 7 10 3 -4
9 -42 13 -84z m-1793 47 c9 -17 13 -77 13 -188 0 -173 -10 -225 -47 -235 -10
-3 -95 -9 -190 -12 l-171 -7 -15 23 c-9 13 -21 64 -27 112 -12 96 -11 287 2
287 4 0 5 -7 2 -15 -5 -13 -2 -13 23 -1 51 25 293 66 368 62 21 -1 33 -8 42
-26z m393 -6 c84 -17 129 -30 139 -42 10 -13 12 -48 8 -157 -6 -146 -17 -204
-42 -225 -11 -9 -57 -11 -189 -5 -205 8 -210 11 -222 101 -12 97 1 310 20 340
17 24 20 25 89 19 40 -4 128 -18 197 -31z m160 -26 c0 -16 -3 -19 -11 -11 -6
6 -8 16 -5 22 11 17 16 13 16 -11z m-1873 -275 c-8 -281 -50 -442 -194 -748
-111 -236 -197 -450 -234 -585 -31 -114 -33 -119 -51 -103 -10 9 -18 24 -18
34 0 45 84 341 145 509 146 404 175 499 230 755 34 158 51 210 89 267 17 26
33 48 35 48 2 0 1 -80 -2 -177z m597 -64 c106 -132 129 -172 154 -265 64 -231
46 -394 -44 -394 -61 0 -249 166 -292 257 -25 53 -27 68 -26 168 1 72 9 144
23 210 12 55 25 135 28 177 l6 78 31 -60 c17 -33 71 -110 120 -171z m1732 -17
c53 -332 26 -419 -181 -578 -91 -69 -137 -80 -175 -39 -24 25 -25 32 -24 133
1 79 8 133 28 206 29 113 55 161 135 254 82 96 143 181 166 232 l20 45 3 -45
c1 -25 14 -118 28 -208z m458 210 c31 -46 46 -93 86 -282 47 -223 83 -349 172
-602 94 -269 129 -388 164 -548 l25 -115 -23 -19 -23 -18 -8 43 c-25 135 -101
344 -215 589 -142 308 -189 463 -212 700 -9 92 -6 290 5 290 1 0 14 -17 29
-38z m-2884 -96 c-10 -30 -26 -92 -35 -138 -35 -174 -86 -359 -145 -528 -149
-421 -180 -517 -210 -643 l-32 -133 -64 25 c-61 24 -63 25 -57 55 13 72 109
438 168 641 35 121 78 276 95 345 55 224 99 299 229 386 36 24 67 44 68 44 1
0 -6 -24 -17 -54z m3116 -97 c45 -62 68 -121 104 -274 16 -66 63 -249 105
-405 70 -260 145 -579 145 -612 0 -11 -31 -25 -109 -49 -9 -3 -20 24 -37 101
-38 165 -81 310 -155 518 -86 242 -128 385 -174 598 -20 93 -43 189 -51 213
-8 25 -14 48 -14 53 0 19 153 -98 186 -143z m-1611 -90 c4 -5 0 -18 -8 -27 -8
-9 -20 -33 -25 -52 -7 -25 -10 -29 -11 -12 -1 12 -1 25 -2 30 0 4 -9 17 -21
29 -11 12 -17 26 -13 32 8 14 72 14 80 0z m-889 -465 c38 -32 82 -74 99 -91
28 -29 146 -238 151 -267 1 -6 43 -73 93 -148 50 -76 91 -146 91 -157 0 -39
-43 -159 -88 -243 -25 -49 -48 -88 -52 -88 -7 0 -82 274 -129 475 -55 231 -69
295 -64 295 3 0 37 -30 75 -67 39 -38 66 -58 59 -46 -18 36 -209 201 -307 267
l-91 61 21 71 20 71 27 -37 c15 -20 58 -63 95 -96z m1838 71 c9 -30 19 -60 22
-68 3 -9 -25 -33 -79 -69 -97 -65 -301 -238 -319 -271 -6 -12 22 8 62 46 40
37 74 66 76 64 4 -4 -114 -470 -161 -636 -44 -152 -39 -150 -102 -26 -41 81
-61 134 -72 192 -8 42 -6 45 86 185 52 79 96 151 98 160 6 30 115 218 147 253
16 19 58 57 92 85 35 28 78 71 96 96 19 24 35 44 36 44 1 0 10 -25 18 -55z
m-1957 -127 c90 -59 91 -60 81 -131 -23 -177 -121 -486 -225 -715 -42 -92 -91
-212 -109 -267 -18 -55 -33 -93 -33 -85 -3 73 218 1230 235 1230 2 0 25 -14
51 -32z m2017 -75 c49 -208 228 -1261 190 -1118 -22 79 -71 210 -124 324 -33
74 -79 186 -101 250 -54 156 -119 411 -126 493 l-6 66 69 45 c38 25 70 46 71
46 1 1 13 -47 27 -106z m-163 -153 c12 -58 45 -186 75 -285 92 -302 120 -532
111 -908 -7 -345 -33 -513 -148 -971 -106 -425 -115 -571 -40 -727 l26 -55
-35 13 c-55 20 -70 14 -17 -7 27 -10 55 -24 64 -32 68 -56 72 -277 6 -350 -10
-12 -40 -31 -68 -44 -27 -13 -44 -23 -37 -23 22 -1 86 29 110 51 l23 22 -15
-41 c-22 -62 -56 -228 -55 -265 1 -20 9 3 19 57 10 50 35 153 54 229 28 110
36 159 36 231 0 102 25 217 66 296 13 27 26 49 28 49 2 0 0 -17 -6 -37 -5 -21
-13 -159 -17 -308 l-8 -270 -51 -143 c-54 -150 -81 -260 -106 -432 -30 -212
-102 -987 -131 -1420 -8 -129 -18 -249 -20 -266 -5 -31 -6 -31 -48 -23 -23 4
-66 8 -95 9 -59 0 -56 -12 -26 110 22 89 43 223 54 341 19 196 29 658 19 856
-15 327 -46 459 -163 704 -130 274 -180 498 -227 1029 -23 261 3 632 67 955
34 172 145 606 237 930 41 143 105 382 142 530 54 213 73 275 92 295 l23 25
-5 -30 c-3 -16 -12 -95 -20 -175 -37 -336 -71 -520 -177 -930 -38 -151 -90
-356 -115 -455 -24 -99 -66 -262 -94 -361 -63 -233 -94 -388 -109 -544 -20
-200 1 -409 54 -542 14 -35 30 -103 36 -153 28 -221 81 -338 207 -453 69 -62
86 -84 95 -119 6 -24 13 -42 15 -39 8 8 -26 150 -56 233 -16 43 -32 89 -36
103 l-7 25 23 -21 c33 -30 84 -54 111 -53 16 0 8 6 -24 17 -88 32 -126 86
-135 190 -9 117 25 189 110 231 23 12 35 21 27 21 -8 0 -30 -9 -49 -21 -31
-19 -33 -19 -26 -2 38 87 48 136 53 253 5 146 -6 217 -74 475 -82 312 -124
581 -109 705 4 30 29 141 55 245 27 105 67 261 89 348 80 311 121 542 157 872
9 88 22 171 27 185 l11 25 3 -25 c2 -14 13 -72 24 -130z m-1726 118 c3 -13 12
-93 20 -178 38 -378 74 -569 200 -1071 81 -324 85 -345 85 -450 0 -159 -23
-299 -101 -607 -70 -279 -89 -387 -89 -502 0 -78 23 -189 49 -242 l19 -38 -32
19 c-17 10 -44 21 -61 25 -21 4 -15 -1 20 -18 110 -51 151 -164 110 -302 -18
-60 -55 -98 -121 -124 -27 -10 -41 -19 -31 -20 26 0 88 28 114 52 l23 21 -16
-54 c-9 -30 -20 -62 -25 -71 -14 -26 -59 -200 -58 -223 1 -11 8 1 15 27 12 37
30 61 98 122 126 114 176 223 206 446 7 47 23 113 37 148 45 117 57 201 57
417 0 230 -14 330 -90 624 -113 438 -276 1096 -298 1201 -35 166 -73 420 -91
610 -9 91 -18 171 -20 177 -3 10 0 10 15 0 25 -15 27 -23 91 -292 28 -121 94
-375 146 -565 190 -694 242 -934 279 -1270 20 -188 22 -469 5 -645 -46 -475
-104 -722 -226 -971 -148 -300 -176 -462 -176 -1014 0 -457 19 -696 71 -899
11 -43 20 -83 20 -88 0 -4 -17 -8 -37 -8 -21 0 -66 -4 -99 -9 l-61 -8 -7 124
c-17 307 -40 618 -76 1059 -52 628 -66 721 -146 956 -53 160 -68 260 -59 408
6 99 -6 297 -21 343 -3 9 6 -2 20 -25 41 -65 67 -181 70 -313 3 -92 10 -142
39 -255 20 -77 41 -171 47 -210 11 -70 20 -96 20 -58 0 33 -30 194 -45 247
-20 66 -19 73 8 49 27 -25 61 -43 79 -43 7 1 -3 9 -22 20 -80 42 -110 102
-110 221 0 90 34 160 94 188 23 12 49 21 57 22 8 0 10 2 2 5 -6 3 -27 -2 -47
-10 -20 -8 -36 -13 -36 -11 0 2 11 26 26 54 39 79 57 181 49 281 -9 114 -27
205 -90 460 -108 434 -135 613 -142 948 -9 384 17 584 117 912 57 188 100 360
100 408 0 12 4 22 10 22 5 0 12 -10 15 -22z m472 -541 c12 -17 33 -49 48 -69
l27 -36 -17 -54 c-10 -29 -51 -123 -91 -209 -41 -86 -74 -162 -74 -168 0 -6
-3 -11 -7 -11 -5 0 -21 51 -38 113 l-30 112 68 135 c38 74 71 154 74 178 3 23
8 42 12 42 3 0 16 -15 28 -33z m817 -143 c14 -31 42 -82 61 -113 l34 -57 -33
-119 -32 -119 -33 70 c-63 131 -123 269 -141 321 l-19 52 52 70 52 71 16 -60
c10 -33 29 -85 43 -116z m-2399 69 c74 -26 110 -58 158 -140 63 -108 81 -182
74 -308 -6 -100 -48 -380 -67 -444 -34 -118 -149 -181 -246 -135 -143 68 -246
383 -215 664 11 108 65 347 81 364 26 27 136 27 215 -1z m4089 6 c28 -13 41
-50 77 -209 26 -115 35 -307 19 -407 -30 -193 -109 -358 -194 -408 -98 -57
-214 -14 -260 96 -25 60 -68 373 -69 499 -1 96 3 124 21 170 31 78 93 180 122
202 77 56 221 85 284 57z m-2122 -64 c160 1 168 0 175 -20 10 -30 4 -224 -8
-270 -20 -73 -106 -135 -189 -135 -87 0 -168 62 -189 143 -14 59 -14 228 1
264 6 15 10 32 9 37 -1 5 6 3 15 -5 13 -11 54 -14 186 -14z m-225 1 c1 -1 -2
-17 -6 -36 l-7 -34 -21 42 -20 42 26 -7 c14 -3 27 -6 28 -7z m444 -29 c-17
-34 -19 -35 -25 -14 -10 37 -7 45 17 49 30 5 29 7 8 -35z m-471 -127 c0 -36 4
-82 9 -102 6 -27 2 -76 -14 -175 -26 -153 -63 -438 -74 -571 -5 -58 -10 -79
-14 -62 -30 116 -147 606 -147 617 0 9 36 91 79 184 44 92 88 191 98 219 l18
51 22 -48 c16 -34 23 -67 23 -113z m535 95 c10 -27 49 -117 87 -198 37 -82 71
-160 74 -173 5 -19 -67 -333 -144 -629 -7 -24 -10 -11 -16 60 -10 126 -62 535
-80 625 -7 41 -12 79 -9 83 3 4 8 54 12 110 8 96 36 197 52 179 3 -4 14 -29
24 -57z m-1377 -62 c-25 -161 -34 -529 -19 -714 21 -242 51 -408 142 -779 70
-285 82 -366 67 -465 -12 -83 -52 -171 -90 -199 -25 -18 -28 -18 -52 -2 -15 9
-43 52 -65 99 -106 220 -191 769 -191 1238 0 361 40 554 178 852 22 48 42 87
44 87 2 0 -4 -53 -14 -117z m2266 -185 c66 -194 91 -411 83 -723 -11 -391 -72
-813 -153 -1058 -31 -95 -87 -193 -115 -202 -75 -24 -149 155 -135 325 4 41
38 203 76 360 130 533 155 728 146 1125 -3 151 -12 300 -20 355 -9 52 -15 102
-16 110 0 23 104 -204 134 -292z m-1369 -61 c11 -18 42 -43 68 -57 l49 -25 -7
-130 c-15 -305 -45 -513 -126 -890 -27 -126 -50 -239 -50 -250 -1 -11 -7 52
-15 140 -7 88 -20 214 -30 280 -18 136 -15 252 16 500 28 227 63 465 70 465 3
-1 14 -15 25 -33z m403 -124 c26 -178 46 -351 62 -535 11 -123 10 -151 -9
-290 -16 -121 -34 -288 -42 -393 -2 -34 -127 600 -143 730 -19 147 -36 366
-36 461 l0 70 44 21 c23 12 54 35 67 52 13 16 27 30 30 30 3 1 16 -65 27 -146z
m-679 -738 c98 -367 127 -562 118 -785 -12 -291 -85 -470 -194 -470 -56 0
-114 64 -145 160 -20 65 -23 95 -22 220 0 155 7 190 99 538 43 162 73 328 82
445 3 48 7 86 9 85 1 -2 25 -89 53 -193z m986 -90 c9 -55 37 -179 62 -275 80
-309 84 -330 90 -471 4 -107 2 -152 -11 -210 -51 -229 -193 -279 -283 -100
-58 116 -84 346 -64 561 18 190 48 324 162 730 l13 45 7 -90 c4 -49 15 -135
24 -190z m-1410 -911 c-14 -59 -103 -249 -113 -240 -2 2 -10 34 -17 71 -8 37
-17 76 -20 85 -4 14 -1 16 17 13 49 -9 118 82 135 179 l8 43 3 -41 c2 -23 -4
-72 -13 -110z m1786 -11 c27 -44 63 -67 94 -61 29 6 28 8 14 -29 -6 -15 -16
-54 -23 -87 l-12 -58 -41 68 c-53 91 -74 154 -79 239 l-4 70 15 -54 c9 -30 25
-70 36 -88z m-422 -260 c13 -3 42 -2 63 4 37 10 38 10 31 -16 -21 -79 -7 -158
67 -384 l39 -118 -37 30 c-63 49 -129 126 -157 181 -31 61 -69 205 -80 298
l-7 63 28 -26 c15 -14 39 -28 53 -32z m-914 -5 c-30 -234 -87 -353 -224 -467
l-49 -41 43 132 c62 189 78 276 65 346 -5 31 -10 57 -10 59 0 2 11 -4 25 -13
31 -20 84 -14 123 15 15 11 29 21 30 21 2 0 1 -24 -3 -52z m-630 -461 c-77
-120 -117 -551 -81 -865 9 -78 37 -242 61 -365 63 -309 101 -534 125 -726 26
-213 26 -218 -4 -223 -23 -5 -23 -4 -29 118 -9 163 -36 345 -107 709 -104 531
-103 527 -104 755 0 231 8 292 74 533 22 80 40 156 41 169 0 15 7 4 19 -30 17
-47 18 -56 5 -75z m2178 -102 c48 -183 60 -278 61 -465 0 -210 -10 -282 -104
-735 -96 -464 -129 -676 -130 -827 0 -55 -1 -58 -24 -58 -14 0 -28 5 -31 10
-15 24 58 452 169 985 85 410 96 730 36 1025 -11 51 -29 114 -42 140 -22 44
-22 48 -8 98 l15 52 16 -62 c9 -35 28 -108 42 -163z m-2135 38 c56 -172 77
-325 126 -918 46 -558 68 -882 70 -1039 l1 -129 -47 -13 c-27 -6 -48 -9 -48
-5 0 3 -7 65 -15 136 -28 239 -56 418 -110 690 -67 333 -83 437 -95 624 -17
246 16 532 79 695 6 16 13 27 15 25 2 -2 13 -32 24 -66z m2071 -8 c45 -144 55
-238 55 -490 1 -278 -5 -321 -95 -760 -70 -339 -125 -656 -135 -773 l-7 -83
-31 7 c-78 17 -78 17 -71 91 3 38 17 217 31 398 27 364 87 1005 110 1185 27
214 92 490 116 490 4 0 16 -29 27 -65z m-1474 -206 c74 -375 69 -568 -22 -832
l-36 -108 -34 88 c-143 376 -157 587 -57 842 39 97 108 225 112 204 2 -10 18
-97 37 -194z m955 12 c22 -53 49 -145 61 -206 20 -99 21 -117 10 -201 -16
-125 -50 -253 -109 -413 l-49 -134 -36 109 c-85 258 -89 462 -16 814 17 80 33
164 36 188 l6 43 29 -52 c17 -28 47 -95 68 -148z m-1164 -541 c8 -41 43 -157
77 -257 l62 -183 -23 -127 c-32 -181 -69 -442 -78 -548 l-7 -90 -13 60 c-39
180 -70 706 -59 1000 6 176 16 290 22 245 2 -14 11 -59 19 -100z m1265 -465
c-12 -316 -20 -409 -53 -620 l-22 -140 -8 100 c-11 157 -26 275 -60 479 -36
219 -38 198 46 441 30 88 60 191 67 230 6 38 14 77 17 85 15 39 23 -304 13
-575z m-1220 -905 c4 -19 10 -54 14 -77 l6 -42 -31 11 c-54 18 -189 -2 -387
-58 -27 -7 -27 -5 -12 83 8 47 15 63 28 63 9 0 70 13 136 30 77 18 142 28 180
27 59 -2 59 -2 66 -37z m1374 5 c55 -14 112 -25 126 -25 25 0 27 -4 37 -72 6
-40 10 -74 8 -75 -1 -1 -54 10 -117 26 -140 36 -233 46 -282 33 -20 -6 -37 -7
-37 -3 0 13 21 125 26 140 6 19 109 9 239 -24z m-1357 -138 c15 -12 11 -58
-18 -201 -20 -94 -30 -118 -30 -69 0 33 -35 147 -70 227 -16 39 -18 51 -8 58
16 10 108 -1 126 -15z m-110 -102 c45 -124 66 -232 57 -305 -8 -71 10 -11 31
103 l18 98 24 -108 c40 -183 25 -245 -70 -294 -43 -22 -43 -25 -23 60 9 35 13
66 11 68 -8 8 -36 -99 -47 -177 -23 -166 -26 -176 -81 -225 -89 -79 -264 -113
-433 -82 -265 48 -309 203 -110 384 89 80 154 164 230 300 77 135 205 266 278
283 71 17 69 19 115 -105z m1321 64 c-11 -29 -24 -60 -30 -70 -5 -10 -20 -57
-32 -105 l-23 -87 -17 94 c-30 173 -30 184 -12 202 12 12 34 17 76 17 l59 0
-21 -51z m113 36 c57 -9 190 -145 248 -253 81 -149 139 -229 234 -324 80 -80
96 -102 110 -148 21 -71 9 -116 -43 -163 -122 -110 -487 -106 -610 6 -34 31
-61 95 -61 145 0 75 -59 330 -60 262 0 -8 4 -31 9 -50 5 -19 12 -50 15 -68 l6
-33 -41 23 c-98 55 -108 126 -48 338 l12 45 8 -35 c4 -19 14 -71 21 -115 l13
-80 6 105 c7 107 26 177 83 303 20 45 30 57 43 54 10 -3 35 -8 55 -12z m-1674
-61 c-29 -26 -61 -56 -70 -68 -17 -21 -18 -20 -18 30 l0 52 58 15 c85 22 87
21 30 -29z m1837 22 c39 -12 40 -13 41 -59 l1 -47 -61 57 c-33 31 -65 61 -71
66 -10 9 16 4 90 -17z"/>
</g>
</svg>
